<svg xmlns="http://www.w3.org/2000/svg" viewBox="0 0 200 120">
  <!-- Blackboard -->
  <rect x="60" y="10" width="80" height="50" fill="#2d5016" rx="3"/>
  <rect x="65" y="15" width="70" height="40" fill="#3d6b1e"/>

  <!-- Message on board -->
  <text x="100" y="28" font-family="Arial, sans-serif" font-size="10" fill="white" text-anchor="middle">Every frog</text>
  <text x="100" y="40" font-family="Arial, sans-serif" font-size="10" fill="white" text-anchor="middle">belongs in</text>
  <text x="100" y="52" font-family="Arial, sans-serif" font-size="10" fill="#a5d6a7" text-anchor="middle">the pond!</text>

  <!-- Teacher frog (left) - purple -->
  <ellipse cx="40" cy="85" rx="20" ry="18" fill="#9c27b0"/>
  <circle cx="32" cy="68" r="8" fill="#9c27b0"/>
  <circle cx="48" cy="68" r="8" fill="#9c27b0"/>
  <circle cx="32" cy="66" r="5" fill="white"/>
  <circle cx="48" cy="66" r="5" fill="white"/>
  <circle cx="33" cy="66" r="2.5" fill="#4a148c"/>
  <circle cx="49" cy="66" r="2.5" fill="#4a148c"/>
  <path d="M 32 88 Q 40 95 48 88" stroke="#4a148c" stroke-width="2" fill="none"/>
  <!-- Glasses -->
  <circle cx="32" cy="66" r="6" fill="none" stroke="#333" stroke-width="1.5"/>
  <circle cx="48" cy="66" r="6" fill="none" stroke="#333" stroke-width="1.5"/>
  <line x1="38" y1="66" x2="42" y2="66" stroke="#333" stroke-width="1.5"/>
  <!-- Pointer -->
  <line x1="55" y1="80" x2="75" y2="40" stroke="#8B4513" stroke-width="3" stroke-linecap="round"/>

  <!-- Student frog 1 (right) - orange -->
  <ellipse cx="150" cy="92" rx="14" ry="12" fill="#ff9800"/>
  <circle cx="145" cy="80" r="5" fill="#ff9800"/>
  <circle cx="155" cy="80" r="5" fill="#ff9800"/>
  <circle cx="145" cy="78" r="3" fill="white"/>
  <circle cx="155" cy="78" r="3" fill="white"/>
  <circle cx="145.5" cy="78" r="1.5" fill="#e65100"/>
  <circle cx="155.5" cy="78" r="1.5" fill="#e65100"/>
  <path d="M 145 94 Q 150 98 155 94" stroke="#e65100" stroke-width="1.5" fill="none"/>

  <!-- Student frog 2 (far right) - blue -->
  <ellipse cx="178" cy="92" rx="14" ry="12" fill="#2196f3"/>
  <circle cx="173" cy="80" r="5" fill="#2196f3"/>
  <circle cx="183" cy="80" r="5" fill="#2196f3"/>
  <circle cx="173" cy="78" r="3" fill="white"/>
  <circle cx="183" cy="78" r="3" fill="white"/>
  <circle cx="173.5" cy="78" r="1.5" fill="#0d47a1"/>
  <circle cx="183.5" cy="78" r="1.5" fill="#0d47a1"/>
  <path d="M 173 94 Q 178 98 183 94" stroke="#0d47a1" stroke-width="1.5" fill="none"/>

  <!-- Hearts floating -->
  <text x="130" y="75" font-size="14" fill="#e91e63">♥</text>
  <text x="165" y="70" font-size="12" fill="#e91e63">♥</text>
</svg>
